<?xml version="1.0" encoding="UTF-8"?> <svg xmlns="http://www.w3.org/2000/svg" width="159" height="47" viewBox="0 0 159 47" fill="none"> <path d="M153.129 0H6.37318C3.13113 0 0.50293 2.6282 0.50293 5.87025V41.0917C0.50293 44.3338 3.13113 46.962 6.37318 46.962H153.129C156.371 46.962 159 44.3338 159 41.0917V5.87025C159 2.6282 156.371 0 153.129 0Z" fill="black"></path> <path d="M153.129 0.93924C154.437 0.93924 155.691 1.45875 156.616 2.3835C157.541 3.30824 158.06 4.56246 158.06 5.87025V41.0917C158.06 42.3995 157.541 43.6537 156.616 44.5785C155.691 45.5032 154.437 46.0227 153.129 46.0227H6.37318C5.06539 46.0227 3.81117 45.5032 2.88643 44.5785C1.96168 43.6537 1.44217 42.3995 1.44217 41.0917V5.87025C1.44217 4.56246 1.96168 3.30824 2.88643 2.3835C3.81117 1.45875 5.06539 0.93924 6.37318 0.93924H153.129ZM153.129 0H6.37318C4.81629 0 3.32317 0.618471 2.22229 1.71936C1.1214 2.82024 0.50293 4.31336 0.50293 5.87025V41.0917C0.50293 42.6486 1.1214 44.1417 2.22229 45.2426C3.32317 46.3435 4.81629 46.962 6.37318 46.962H153.129C154.686 46.962 156.179 46.3435 157.28 45.2426C158.381 44.1417 159 42.6486 159 41.0917V5.87025C159 4.31336 158.381 2.82024 157.28 1.71936C156.179 0.618471 154.686 0 153.129 0Z" fill="#A6A6A6"></path> <path d="M38.2054 22.6744C38.1729 19.0691 41.1575 17.315 41.2939 17.2334C39.6037 14.769 36.9838 14.4323 36.0632 14.4054C33.8628 14.1739 31.7284 15.7221 30.6076 15.7221C29.4643 15.7221 27.7382 14.4278 25.8779 14.4658C23.4841 14.5028 21.2445 15.8888 20.0163 18.041C17.4814 22.4295 19.3719 28.8784 21.8005 32.4256C23.0153 34.1629 24.4349 36.1026 26.293 36.0344C28.1108 35.9594 28.7898 34.8755 30.9834 34.8755C33.1569 34.8755 33.7946 36.0344 35.6896 35.9908C37.6405 35.9594 38.8687 34.2457 40.0411 32.4928C41.445 30.5016 42.0088 28.5406 42.0311 28.4399C41.9853 28.4243 38.2423 26.9958 38.2054 22.6744Z" fill="white"></path> <path d="M34.6256 12.0717C35.6033 10.849 36.2722 9.18559 36.0865 7.49756C34.6714 7.5602 32.9018 8.47637 31.8827 9.6722C30.981 10.726 30.1756 12.4531 30.3837 14.0774C31.9733 14.196 33.6054 13.2753 34.6256 12.0717Z" fill="white"></path> <path d="M64.5123 35.7853H61.9718L60.5802 31.4125H55.7432L54.4177 35.7853H51.9443L56.7366 20.8984H59.6965L64.5123 35.7853ZM60.1608 29.578L58.9023 25.6907C58.7692 25.2936 58.5197 24.3584 58.1517 22.8863H58.1069C57.9604 23.5194 57.7244 24.4546 57.3999 25.6907L56.1639 29.578H60.1608V29.578Z" fill="white"></path> <path d="M76.8354 30.2847C76.8354 32.1103 76.3421 33.5534 75.3554 34.6127C74.4717 35.5558 73.3743 36.0267 72.0644 36.0267C70.6504 36.0267 69.6347 35.5188 69.0161 34.5031H68.9714V40.1578H66.5864V28.5833C66.5864 27.4355 66.5562 26.2576 66.498 25.0495H68.5955L68.7286 26.7509H68.7734C69.5687 25.469 70.7757 24.8291 72.3955 24.8291C73.6618 24.8291 74.7189 25.3291 75.5646 26.3303C76.4126 27.3326 76.8354 28.6504 76.8354 30.2847ZM74.4057 30.372C74.4057 29.3272 74.1708 28.4658 73.6987 27.7879C73.183 27.0809 72.4906 26.7274 71.6225 26.7274C71.0341 26.7274 70.4994 26.9243 70.0218 27.3125C69.543 27.704 69.2298 28.2152 69.0832 28.8484C69.0094 29.1437 68.9725 29.3853 68.9725 29.5755V31.3653C68.9725 32.1461 69.2119 32.805 69.6906 33.3431C70.1694 33.8811 70.7914 34.1496 71.5565 34.1496C72.4548 34.1496 73.154 33.8028 73.654 33.1115C74.1551 32.4191 74.4057 31.5063 74.4057 30.372Z" fill="white"></path> <path d="M89.1829 30.2847C89.1829 32.1103 88.6896 33.5534 87.7018 34.6127C86.8192 35.5558 85.7218 36.0267 84.4119 36.0267C82.998 36.0267 81.9822 35.5188 81.3647 34.5031H81.32V40.1578H78.9351V28.5833C78.9351 27.4355 78.9048 26.2576 78.8467 25.0495H80.9441L81.0773 26.7509H81.122C81.9162 25.469 83.1232 24.8291 84.7442 24.8291C86.0093 24.8291 87.0665 25.3291 87.9144 26.3303C88.759 27.3326 89.1829 28.6504 89.1829 30.2847ZM86.7532 30.372C86.7532 29.3272 86.5172 28.4658 86.0451 27.7879C85.5294 27.0809 84.8392 26.7274 83.9701 26.7274C83.3805 26.7274 82.8469 26.9243 82.3682 27.3125C81.8894 27.704 81.5773 28.2152 81.4307 28.8484C81.358 29.1437 81.32 29.3853 81.32 29.5755V31.3653C81.32 32.1461 81.5594 32.805 82.0359 33.3431C82.5147 33.88 83.1367 34.1496 83.9041 34.1496C84.8023 34.1496 85.5015 33.8028 86.0015 33.1115C86.5027 32.4191 86.7532 31.5063 86.7532 30.372Z" fill="white"></path> <path d="M102.987 31.6099C102.987 32.8762 102.548 33.9065 101.665 34.7019C100.695 35.571 99.3452 36.0051 97.6102 36.0051C96.0083 36.0051 94.7241 35.6963 93.752 35.0777L94.3046 33.0899C95.3516 33.723 96.5005 34.0407 97.7522 34.0407C98.6505 34.0407 99.3496 33.8371 99.8519 33.4322C100.352 33.0273 100.601 32.4836 100.601 31.8057C100.601 31.2016 100.396 30.6926 99.9828 30.2799C99.5722 29.8671 98.8865 29.4834 97.929 29.1288C95.3225 28.1567 94.0204 26.7327 94.0204 24.8601C94.0204 23.6363 94.4768 22.6328 95.3908 21.852C96.3013 21.0701 97.5162 20.6797 99.0353 20.6797C100.39 20.6797 101.515 20.9157 102.414 21.3867L101.817 23.3309C100.978 22.8745 100.03 22.6463 98.9682 22.6463C98.1292 22.6463 97.4737 22.8532 97.0038 23.2649C96.6067 23.6329 96.4076 24.0815 96.4076 24.6128C96.4076 25.2012 96.6347 25.6878 97.0911 26.0704C97.4882 26.4239 98.2097 26.8065 99.2568 27.2193C100.538 27.735 101.478 28.3379 102.084 29.0292C102.687 29.7183 102.987 30.5808 102.987 31.6099Z" fill="white"></path> <path d="M110.872 26.8405H108.243V32.0522C108.243 33.3778 108.707 34.0401 109.635 34.0401C110.061 34.0401 110.415 34.0031 110.694 33.9293L110.76 35.7404C110.291 35.916 109.672 36.0044 108.906 36.0044C107.964 36.0044 107.228 35.7169 106.696 35.143C106.167 34.5681 105.901 33.6038 105.901 32.2491V26.8382H104.335V25.0484H105.901V23.083L108.243 22.376V25.0484H110.872V26.8405Z" fill="white"></path> <path d="M122.733 30.3292C122.733 31.9792 122.261 33.3338 121.319 34.3932C120.331 35.4839 119.02 36.0275 117.386 36.0275C115.811 36.0275 114.557 35.5051 113.622 34.4603C112.686 33.4155 112.219 32.0966 112.219 30.507C112.219 28.8436 112.7 27.4811 113.665 26.4218C114.628 25.3613 115.928 24.8311 117.563 24.8311C119.138 24.8311 120.405 25.3535 121.361 26.3994C122.276 27.414 122.733 28.7239 122.733 30.3292ZM120.258 30.4064C120.258 29.4164 120.047 28.5673 119.619 27.8592C119.119 27.0023 118.404 26.575 117.477 26.575C116.519 26.575 115.791 27.0035 115.291 27.8592C114.862 28.5684 114.651 29.4309 114.651 30.4511C114.651 31.4411 114.862 32.2902 115.291 32.9971C115.806 33.854 116.527 34.2813 117.456 34.2813C118.367 34.2813 119.082 33.8451 119.597 32.9748C120.037 32.2532 120.258 31.3952 120.258 30.4064Z" fill="white"></path> <path d="M130.485 27.1469C130.249 27.1033 129.998 27.0809 129.734 27.0809C128.895 27.0809 128.246 27.3975 127.789 28.0318C127.392 28.5911 127.193 29.2981 127.193 30.1516V35.784H124.809L124.832 28.43C124.832 27.1928 124.801 26.0663 124.742 25.0506H126.82L126.907 27.1044H126.973C127.224 26.3986 127.622 25.8303 128.165 25.4041C128.697 25.0204 129.27 24.8291 129.889 24.8291C130.109 24.8291 130.309 24.8448 130.485 24.8727V27.1469Z" fill="white"></path> <path d="M141.151 29.9095C141.151 30.3368 141.123 30.697 141.064 30.9912H133.909C133.937 32.0517 134.283 32.8627 134.947 33.422C135.55 33.922 136.33 34.1726 137.287 34.1726C138.347 34.1726 139.313 34.0037 140.182 33.6647L140.556 35.3203C139.54 35.7633 138.341 35.9837 136.957 35.9837C135.293 35.9837 133.986 35.4937 133.035 34.5149C132.087 33.5361 131.611 32.2217 131.611 30.5728C131.611 28.9541 132.053 27.6062 132.938 26.5312C133.864 25.3834 135.116 24.8096 136.691 24.8096C138.238 24.8096 139.409 25.3834 140.205 26.5312C140.835 27.4429 141.151 28.5704 141.151 29.9095ZM138.877 29.2908C138.893 28.5839 138.737 27.9731 138.414 27.4574C138.001 26.794 137.367 26.4629 136.513 26.4629C135.734 26.4629 135.099 26.7862 134.615 27.435C134.218 27.9507 133.982 28.5693 133.909 29.2897H138.877V29.2908Z" fill="white"></path> <path d="M60.4943 17.2598H59.2538V15.4093H54.2967V17.2598H53.0355L52.9941 14.3652H53.5989C53.8987 14.0757 54.1382 13.6553 54.3174 13.104C54.4966 12.5492 54.612 11.922 54.6637 11.2225L54.8601 7.8833H59.6053V14.3652H60.5615L60.4943 17.2598ZM55.0772 14.3652H58.3027V8.93777H56.1059L55.9818 11.0571C55.8888 12.4734 55.5872 13.5761 55.0772 14.3652Z" fill="white"></path> <path d="M61.7163 12.5612C61.7163 12.0133 61.8248 11.5205 62.0419 11.0829C62.259 10.6418 62.564 10.3041 62.9568 10.0698C63.3497 9.83201 63.8011 9.71312 64.3111 9.71312C65.0658 9.71312 65.6774 9.95606 66.1461 10.4419C66.6182 10.9278 66.8732 11.5722 66.9111 12.3751L66.9163 12.6698C66.9163 13.2211 66.8095 13.7139 66.5958 14.1481C66.3856 14.5823 66.0823 14.9183 65.6861 15.1561C65.2932 15.3938 64.8383 15.5127 64.3214 15.5127C63.5323 15.5127 62.9 15.2508 62.4244 14.727C61.9523 14.1998 61.7163 13.4985 61.7163 12.6233V12.5612ZM62.9723 12.6698C62.9723 13.2453 63.0912 13.6967 63.329 14.0241C63.5668 14.348 63.8976 14.5099 64.3214 14.5099C64.7453 14.5099 65.0744 14.3445 65.3087 14.0137C65.5465 13.6829 65.6654 13.1987 65.6654 12.5612C65.6654 11.9961 65.5431 11.5481 65.2984 11.2173C65.0572 10.8865 64.7281 10.7211 64.3111 10.7211C63.901 10.7211 63.5754 10.8848 63.3342 11.2121C63.093 11.536 62.9723 12.0219 62.9723 12.6698Z" fill="white"></path> <path d="M70.8054 14.5099C71.119 14.5099 71.3792 14.4186 71.5859 14.236C71.7927 14.0533 71.903 13.8276 71.9168 13.5588H73.1005C73.0867 13.9069 72.9781 14.2325 72.7748 14.5358C72.5715 14.8356 72.2958 15.0734 71.9478 15.2491C71.5997 15.4248 71.2241 15.5127 70.8209 15.5127C70.0387 15.5127 69.4184 15.2594 68.9601 14.7529C68.5018 14.2463 68.2726 13.5468 68.2726 12.6543V12.525C68.2726 11.6739 68.5001 10.9933 68.9549 10.4833C69.4098 9.96985 70.0301 9.71312 70.8158 9.71312C71.4808 9.71312 72.0219 9.90782 72.4388 10.2972C72.8592 10.6832 73.0798 11.1914 73.1005 11.8221H71.9168C71.903 11.5016 71.7927 11.238 71.5859 11.0312C71.3826 10.8245 71.1225 10.7211 70.8054 10.7211C70.3988 10.7211 70.0852 10.8692 69.8647 11.1656C69.6441 11.4585 69.5321 11.9048 69.5287 12.5044V12.706C69.5287 13.3125 69.6372 13.7656 69.8543 14.0654C70.0749 14.3618 70.3919 14.5099 70.8054 14.5099Z" fill="white"></path> <path d="M78.9797 10.8141H77.1653V15.4093H75.9093V10.8141H74.1156V9.8165H78.9797V10.8141Z" fill="white"></path> <path d="M82.3674 13.6105L83.5046 9.8165H84.8433L82.6207 16.2571C82.2795 17.1978 81.7006 17.6682 80.8839 17.6682C80.7013 17.6682 80.4997 17.6372 80.2791 17.5751V16.6034L80.5169 16.6189C80.8339 16.6189 81.0717 16.5603 81.2302 16.4431C81.3922 16.3294 81.5197 16.1364 81.6127 15.8642L81.7936 15.3835L79.8294 9.8165H81.1837L82.3674 13.6105Z" fill="white"></path> <path d="M90.8414 15.4093H89.5854V10.8296H87.4041V15.4093H86.148V9.8165H90.8414V15.4093Z" fill="white"></path> <path d="M97.4443 15.4093H96.1882V13.1505H94.0121V15.4093H92.756V9.8165H94.0121V12.1477H96.1882V9.8165H97.4443V15.4093Z" fill="white"></path> <path d="M99.0798 12.5612C99.0798 12.0133 99.1883 11.5205 99.4054 11.0829C99.6225 10.6418 99.9275 10.3041 100.32 10.0698C100.713 9.83201 101.165 9.71312 101.675 9.71312C102.429 9.71312 103.041 9.95606 103.51 10.4419C103.982 10.9278 104.237 11.5722 104.275 12.3751L104.28 12.6698C104.28 13.2211 104.173 13.7139 103.959 14.1481C103.749 14.5823 103.446 14.9183 103.05 15.1561C102.657 15.3938 102.202 15.5127 101.685 15.5127C100.896 15.5127 100.263 15.2508 99.7879 14.727C99.3158 14.1998 99.0798 13.4985 99.0798 12.6233V12.5612ZM100.336 12.6698C100.336 13.2453 100.455 13.6967 100.692 14.0241C100.93 14.348 101.261 14.5099 101.685 14.5099C102.109 14.5099 102.438 14.3445 102.672 14.0137C102.91 13.6829 103.029 13.1987 103.029 12.5612C103.029 11.9961 102.907 11.5481 102.662 11.2173C102.421 10.8865 102.092 10.7211 101.675 10.7211C101.265 10.7211 100.939 10.8848 100.698 11.2121C100.456 11.536 100.336 12.0219 100.336 12.6698Z" fill="white"></path> <path d="M109.132 15.4093V9.8165H111.402C112.167 9.8165 112.749 9.95089 113.149 10.2197C113.548 10.485 113.748 10.8675 113.748 11.3672C113.748 11.6256 113.667 11.8582 113.505 12.065C113.347 12.2683 113.111 12.4251 112.797 12.5354C113.162 12.6112 113.452 12.7645 113.666 12.9954C113.879 13.2263 113.986 13.4985 113.986 13.8121C113.986 14.3325 113.793 14.7288 113.407 15.001C113.025 15.2732 112.473 15.4093 111.753 15.4093H109.132ZM110.388 13.0264V14.4169H111.763C112.408 14.4169 112.73 14.186 112.73 13.7243C112.73 13.259 112.403 13.0264 111.748 13.0264H110.388ZM110.388 12.127H111.422C112.136 12.127 112.492 11.9168 112.492 11.4964C112.492 11.0553 112.155 10.8279 111.479 10.8141H110.388V12.127Z" fill="white"></path> </svg> 