<?xml version="1.0" encoding="UTF-8"?> <svg xmlns="http://www.w3.org/2000/svg" width="160" height="29" viewBox="0 0 160 29" fill="none"> <g clip-path="url(#clip0_3283_38288)"> <g clip-path="url(#clip1_3283_38288)"> <g clip-path="url(#clip2_3283_38288)"> <path d="M32.7903 24.132C34.5547 24.132 36.0082 23.4795 36.9293 22.5301C37.0391 22.4216 37.1815 22.3519 37.3346 22.3319C37.4878 22.3119 37.6433 22.3427 37.7773 22.4194L40.9881 24.2639C41.0479 24.2974 41.0997 24.3435 41.1398 24.3991C41.1799 24.4546 41.2075 24.5183 41.2205 24.5856C41.2335 24.6528 41.2317 24.7222 41.2151 24.7887C41.1986 24.8552 41.1677 24.9173 41.1247 24.9706C39.2402 27.4229 36.3474 28.8175 32.715 28.8175C25.9871 28.8175 21.7422 24.2121 21.7422 18.2452C21.7422 12.2782 26.0272 7.67285 32.3192 7.67285C38.2461 7.67285 42.4486 12.3583 42.4486 18.2452C42.4474 18.8209 42.4025 19.3958 42.3144 19.9648C42.2978 20.0776 42.241 20.1805 42.1544 20.2546C42.0677 20.3287 41.9572 20.3688 41.8432 20.3676H27.4736C27.4355 20.3673 27.398 20.3761 27.3641 20.3934C27.3303 20.4107 27.3011 20.4359 27.2791 20.4669C27.2571 20.498 27.243 20.5338 27.2379 20.5715C27.2328 20.6092 27.2368 20.6475 27.2498 20.6833C28.0484 23.1002 30.1826 24.132 32.7903 24.132ZM36.974 16.3583C37.0104 16.3593 37.0464 16.352 37.0794 16.3368C37.1125 16.3216 37.1415 16.299 37.1643 16.2707C37.1871 16.2424 37.2031 16.2092 37.2109 16.1737C37.2188 16.1382 37.2183 16.1014 37.2096 16.0661C36.5029 13.3972 34.404 12.3135 32.3145 12.3135C29.6596 12.3135 27.8175 13.6822 27.1438 16.0638C27.1346 16.0992 27.1338 16.1363 27.1415 16.1721C27.1491 16.2079 27.165 16.2414 27.1879 16.27C27.2107 16.2985 27.2399 16.3214 27.2732 16.3367C27.3064 16.352 27.3428 16.3594 27.3793 16.3583H36.974Z" fill="#0068FF"></path> <path d="M51.1872 13.1922V21.9082C51.1872 23.9482 52.5747 24.099 55.2177 23.9765C55.2816 23.9733 55.3454 23.9831 55.4053 24.0054C55.4652 24.0276 55.52 24.0618 55.5662 24.1059C55.6125 24.1499 55.6493 24.203 55.6745 24.2617C55.6996 24.3205 55.7125 24.3837 55.7124 24.4476V28.2167C55.713 28.3339 55.6699 28.4471 55.5915 28.5343C55.5131 28.6214 55.405 28.6761 55.2884 28.6879C48.3674 29.3592 46.0212 27.2156 46.0212 21.9153V13.1922H43.0082C42.8833 13.1922 42.7635 13.1425 42.6751 13.0542C42.5867 12.9658 42.5371 12.846 42.5371 12.721V8.71638C42.5371 8.59143 42.5867 8.4716 42.6751 8.38324C42.7635 8.29489 42.8833 8.24525 43.0082 8.24525H46.0212V4.71172C46.0212 4.56012 46.07 4.41255 46.1604 4.29081C46.2507 4.16907 46.3778 4.07961 46.5229 4.03564L50.5794 2.80833C50.6497 2.78702 50.7241 2.78246 50.7965 2.795C50.8689 2.80754 50.9373 2.83684 50.9964 2.88056C51.0554 2.92428 51.1034 2.9812 51.1366 3.04679C51.1697 3.11237 51.187 3.18479 51.1872 3.25827V8.24525H55.2413C55.3663 8.24525 55.4861 8.29489 55.5744 8.38324C55.6628 8.4716 55.7124 8.59143 55.7124 8.71638V12.721C55.7124 12.846 55.6628 12.9658 55.5744 13.0542C55.4861 13.1425 55.3663 13.1922 55.2413 13.1922H51.1872Z" fill="#0068FF"></path> <path d="M77.2228 8.71642V27.7974C77.2228 27.9224 77.1731 28.0422 77.0848 28.1306C76.9964 28.2189 76.8766 28.2686 76.7516 28.2686H72.5279C72.403 28.2686 72.2831 28.2189 72.1948 28.1306C72.1064 28.0422 72.0568 27.9224 72.0568 27.7974V25.9129C70.6151 27.715 68.4526 28.8363 65.5292 28.8363C60.203 28.8363 55.7979 24.2309 55.7979 18.264C55.7979 12.2971 60.203 7.67285 65.5339 7.67285C68.4573 7.67285 70.6198 8.79416 72.0615 10.5963V8.71642C72.0615 8.59147 72.1111 8.47163 72.1995 8.38327C72.2878 8.29492 72.4077 8.24528 72.5326 8.24528H76.7564C76.8805 8.24652 76.9991 8.29671 77.0865 8.38493C77.1738 8.47315 77.2228 8.59228 77.2228 8.71642ZM72.0568 18.2569C72.0568 14.893 69.7011 12.6033 66.4903 12.6033C63.3266 12.6033 60.9639 14.886 60.9639 18.2569C60.9639 21.6279 63.3195 23.9106 66.4903 23.9106C69.694 23.8917 72.0568 21.6091 72.0568 18.2452V18.2569Z" fill="#0068FF"></path> <path d="M79.0197 3.25089C79.0081 2.81927 79.083 2.38969 79.2401 1.98752C79.3973 1.58535 79.6334 1.21873 79.9345 0.909328C80.2357 0.599924 80.5958 0.354 80.9936 0.186078C81.3914 0.0181559 81.8188 -0.0683594 82.2506 -0.0683594C82.6823 -0.0683594 83.1097 0.0181559 83.5075 0.186078C83.9053 0.354 84.2654 0.599924 84.5666 0.909328C84.8677 1.21873 85.1038 1.58535 85.261 1.98752C85.4181 2.38969 85.493 2.81927 85.4814 3.25089C85.4586 4.09265 85.1083 4.8923 84.5049 5.47965C83.9014 6.06699 83.0926 6.39563 82.2506 6.39563C81.4085 6.39563 80.5997 6.06699 79.9962 5.47965C79.3928 4.8923 79.0425 4.09265 79.0197 3.25089ZM80.1387 8.24493H84.3648C84.4897 8.24493 84.6096 8.29457 84.6979 8.38292C84.7863 8.47128 84.8359 8.59112 84.8359 8.71607V27.7971C84.8359 27.9221 84.7863 28.0419 84.6979 28.1302C84.6096 28.2186 84.4897 28.2682 84.3648 28.2682H80.1387C80.0137 28.2682 79.8939 28.2186 79.8055 28.1302C79.7172 28.0419 79.6675 27.9221 79.6675 27.7971V8.71607C79.6675 8.59112 79.7172 8.47128 79.8055 8.38292C79.8939 8.29457 80.0137 8.24493 80.1387 8.24493Z" fill="#0068FF"></path> <path d="M87.7075 4.77874e-08H91.9288C92.0514 -5.51083e-05 92.1691 0.0476375 92.2571 0.132959C92.3451 0.21828 92.3963 0.334515 92.4 0.457003V27.7971C92.3963 27.9195 92.3451 28.0358 92.2571 28.1211C92.1691 28.2064 92.0514 28.2541 91.9288 28.2541H87.7075C87.5849 28.2541 87.4672 28.2064 87.3792 28.1211C87.2913 28.0358 87.24 27.9195 87.2363 27.7971V0.457003C87.24 0.334515 87.2913 0.21828 87.3792 0.132959C87.4672 0.0476375 87.5849 -5.51083e-05 87.7075 4.77874e-08Z" fill="#0068FF"></path> <path d="M94.8027 18.2452C94.8027 12.2782 99.2785 7.67285 105.375 7.67285C109.118 7.67285 112.39 9.5574 114.108 12.4196C114.141 12.4731 114.163 12.5328 114.172 12.595C114.182 12.6572 114.179 12.7208 114.163 12.7818C114.148 12.8429 114.121 12.9002 114.083 12.9505C114.045 13.0007 113.997 13.0429 113.943 13.0744L110.508 15.0768C110.354 15.1678 110.17 15.1968 109.996 15.1579C109.821 15.119 109.667 15.015 109.566 14.8671C108.673 13.5573 107.125 12.747 105.326 12.747C102.242 12.747 99.9593 15.0296 99.9593 18.2334C99.9593 21.3971 102.242 23.6797 105.326 23.6797C107.161 23.6797 108.715 22.9023 109.606 21.5949C109.706 21.4497 109.858 21.3474 110.03 21.3081C110.202 21.2689 110.383 21.2956 110.536 21.3829L114.002 23.3641C114.057 23.3956 114.105 23.4381 114.144 23.4889C114.183 23.5397 114.21 23.5978 114.226 23.6597C114.241 23.7216 114.244 23.786 114.234 23.8489C114.223 23.9119 114.201 23.9721 114.166 24.026C113.228 25.5074 111.927 26.7244 110.386 27.5613C108.846 28.3983 107.117 28.8274 105.363 28.808C99.288 28.8175 94.8027 24.2121 94.8027 18.2452Z" fill="black"></path> <path d="M127.837 8.31991V13.0878C127.837 13.1519 127.824 13.2154 127.799 13.2743C127.774 13.3332 127.737 13.3864 127.69 13.4305C127.644 13.4746 127.588 13.5087 127.528 13.5308C127.468 13.5529 127.404 13.5625 127.34 13.5589C124.749 13.4365 121.75 14.7368 121.75 18.6849V27.7967C121.75 27.9216 121.7 28.0415 121.612 28.1298C121.524 28.2182 121.404 28.2678 121.279 28.2678H117.055C116.93 28.2678 116.81 28.2182 116.722 28.1298C116.634 28.0415 116.584 27.9216 116.584 27.7967V8.71566C116.584 8.59071 116.634 8.47087 116.722 8.38252C116.81 8.29416 116.93 8.24453 117.055 8.24453H121.279C121.404 8.24453 121.524 8.29416 121.612 8.38252C121.7 8.47087 121.75 8.59071 121.75 8.71566V11.6768C122.723 9.13262 124.989 7.98776 127.34 7.84642C127.404 7.84288 127.469 7.85252 127.529 7.87476C127.589 7.897 127.644 7.93135 127.691 7.97571C127.737 8.02007 127.774 8.07349 127.8 8.13269C127.825 8.19188 127.837 8.2556 127.837 8.31991Z" fill="black"></path> <path d="M159.955 15.9218V27.7968C159.955 27.9218 159.905 28.0416 159.817 28.13C159.728 28.2183 159.609 28.268 159.484 28.268H155.26C155.135 28.268 155.015 28.2183 154.927 28.13C154.838 28.0416 154.789 27.9218 154.789 27.7968V16.2823C154.789 13.9266 153.587 12.4778 151.425 12.4778C149.142 12.4778 147.701 13.9996 147.701 17.0031V27.7968C147.701 27.9218 147.651 28.0416 147.563 28.13C147.474 28.2183 147.354 28.268 147.229 28.268H143.006C142.881 28.268 142.761 28.2183 142.673 28.13C142.584 28.0416 142.535 27.9218 142.535 27.7968V16.2823C142.535 13.9266 141.333 12.4778 139.171 12.4778C136.968 12.4778 135.402 13.9996 135.402 17.0031V27.7968C135.402 27.9218 135.352 28.0416 135.264 28.13C135.175 28.2183 135.055 28.268 134.93 28.268H130.711C130.586 28.268 130.467 28.2183 130.378 28.13C130.29 28.0416 130.24 27.9218 130.24 27.7968V8.71581C130.24 8.59085 130.29 8.47102 130.378 8.38266C130.467 8.29431 130.586 8.24467 130.711 8.24467H134.935C135.06 8.24467 135.18 8.29431 135.268 8.38266C135.357 8.47102 135.406 8.59085 135.406 8.71581V10.3648C136.528 8.68283 138.41 7.68166 140.973 7.68166C143.456 7.68166 145.298 8.72287 146.419 10.565C147.661 8.76292 149.663 7.68166 152.386 7.68166C156.951 7.67224 159.955 10.916 159.955 15.9218Z" fill="black"></path> <path d="M20.7971 7.63281H3.7137C2.74029 7.63468 1.80738 8.02268 1.11974 8.71165C0.432099 9.40062 0.0458966 10.3343 0.0458984 11.3077L0.0458984 28.3887C0.0458984 28.5137 0.0955359 28.6335 0.183891 28.7219C0.272246 28.8102 0.392082 28.8599 0.517035 28.8599H4.77611C4.90106 28.8599 5.0209 28.8102 5.10925 28.7219C5.19761 28.6335 5.24725 28.5137 5.24725 28.3887V19.0814C5.24671 18.1067 4.94383 17.156 4.38035 16.3606L2.65364 13.9201L16.816 28.0801C16.8598 28.1247 16.9121 28.16 16.9697 28.1841C17.0274 28.2083 17.0892 28.2207 17.1517 28.2207C17.2142 28.2207 17.276 28.2083 17.3337 28.1841C17.3913 28.16 17.4435 28.1247 17.4874 28.0801L20.4932 25.0719C20.5377 25.0281 20.5731 24.9758 20.5972 24.9182C20.6214 24.8606 20.6338 24.7987 20.6338 24.7362C20.6338 24.6738 20.6214 24.6119 20.5972 24.5543C20.5731 24.4967 20.5377 24.4444 20.4932 24.4006L6.34499 10.2547L8.76192 11.9673C9.55734 12.5307 10.508 12.8336 11.4827 12.8342H20.7971C20.9221 12.8342 21.0419 12.7845 21.1303 12.6962C21.2186 12.6078 21.2682 12.488 21.2682 12.363V8.10395C21.2682 7.979 21.2186 7.85916 21.1303 7.7708C21.0419 7.68245 20.9221 7.63281 20.7971 7.63281Z" fill="#0068FF"></path> <path d="M20.7877 0H0.517035C0.256833 0 0.0458984 0.210935 0.0458984 0.471137V4.75848C0.0458984 5.01868 0.256833 5.22962 0.517035 5.22962H20.7877C21.0479 5.22962 21.2588 5.01868 21.2588 4.75848V0.471137C21.2588 0.210935 21.0479 0 20.7877 0Z" fill="#0068FF"></path> </g> </g> </g> <defs> <clipPath id="clip0_3283_38288"> <rect width="160" height="28.81" fill="white"></rect> </clipPath> <clipPath id="clip1_3283_38288"> <rect width="160" height="28.81" fill="white"></rect> </clipPath> <clipPath id="clip2_3283_38288"> <rect width="159.908" height="28.81" fill="white" transform="translate(0.0458984)"></rect> </clipPath> </defs> </svg> 