<?xml version="1.0" encoding="UTF-8"?> <svg xmlns="http://www.w3.org/2000/svg" width="32" height="33" viewBox="0 0 32 33" fill="none"> <g clip-path="url(#clip0_3283_38315)"> <rect x="-0.03125" y="0.817383" width="31.9844" height="31.9844" rx="15.9922" fill="white"></rect> <path fill-rule="evenodd" clip-rule="evenodd" d="M15.3398 0.819251C8.73438 0.819884 4.36096 0.546593 2.01156 2.86055C-0.282562 5.2296 0.0123341 10.0238 0.0123341 16.4692C7.10825 16.2532 10.0861 16.2964 12.6741 13.7475C15.2012 11.1372 15.1256 7.97643 15.3398 0.819251ZM2.01156 30.7583C-0.282564 28.3892 0.0123341 23.5951 0.0123341 17.1496C7.10826 17.3656 10.0861 17.3224 12.6741 19.8714C15.2012 22.4816 15.1256 25.643 15.3398 32.7996C8.73438 32.7996 4.36096 33.0729 2.01156 30.7583ZM16.0062 32.7996C16.2203 25.643 16.1447 22.4816 18.6718 19.8714C21.2598 17.3224 24.9041 17.3656 32 17.1496C31.9993 23.5951 31.6285 28.3892 29.3344 30.7583C26.985 33.0729 22.6116 32.7996 16.0062 32.7996ZM16.0062 0.819251C16.2203 7.97643 16.1447 11.1372 18.6718 13.7475C21.2598 16.2964 24.9041 16.2532 32 16.4692C31.9993 10.0238 31.6285 5.2296 29.3344 2.86055C26.985 0.546593 22.6116 0.819884 16.0062 0.819251Z" fill="#2C3036"></path> </g> <defs> <clipPath id="clip0_3283_38315"> <rect y="0.80957" width="32" height="32" rx="16" fill="white"></rect> </clipPath> </defs> </svg> 