<?xml version="1.0" encoding="UTF-8"?> <svg xmlns="http://www.w3.org/2000/svg" width="159" height="47" viewBox="0 0 159 47" fill="none"> <path d="M152.626 0H5.87025C2.6282 0 0 2.6282 0 5.87025V41.0917C0 44.3338 2.6282 46.962 5.87025 46.962H152.626C155.868 46.962 158.497 44.3338 158.497 41.0917V5.87025C158.497 2.6282 155.868 0 152.626 0Z" fill="black"></path> <path d="M152.626 0.93924C153.934 0.93924 155.188 1.45875 156.113 2.3835C157.038 3.30824 157.557 4.56246 157.557 5.87025V41.0917C157.557 42.3995 157.038 43.6537 156.113 44.5785C155.188 45.5032 153.934 46.0227 152.626 46.0227H5.87025C4.56246 46.0227 3.30824 45.5032 2.3835 44.5785C1.45875 43.6537 0.93924 42.3995 0.93924 41.0917V5.87025C0.93924 4.56246 1.45875 3.30824 2.3835 2.3835C3.30824 1.45875 4.56246 0.93924 5.87025 0.93924H152.626ZM152.626 0H5.87025C4.31336 0 2.82024 0.618471 1.71936 1.71936C0.618471 2.82024 0 4.31336 0 5.87025V41.0917C0 42.6486 0.618471 44.1417 1.71936 45.2426C2.82024 46.3435 4.31336 46.962 5.87025 46.962H152.626C154.183 46.962 155.676 46.3435 156.777 45.2426C157.878 44.1417 158.497 42.6486 158.497 41.0917V5.87025C158.497 4.31336 157.878 2.82024 156.777 1.71936C155.676 0.618471 154.183 0 152.626 0Z" fill="#A6A6A6"></path> <path d="M79.9992 25.5357C79.0133 25.5404 78.0509 25.8369 77.2335 26.388C76.416 26.9391 75.7801 27.72 75.4061 28.6322C75.032 29.5443 74.9366 30.5468 75.1317 31.5132C75.3269 32.4796 75.804 33.3664 76.5027 34.0619C77.2015 34.7574 78.0906 35.2303 79.0578 35.4209C80.0251 35.6116 81.0272 35.5114 81.9375 35.133C82.8479 34.7547 83.6258 34.1152 84.1731 33.2951C84.7203 32.4751 85.0124 31.5113 85.0124 30.5254C85.022 29.8655 84.8987 29.2105 84.6498 28.5992C84.401 27.988 84.0317 27.4331 83.5639 26.9675C83.0962 26.5019 82.5395 26.1352 81.9271 25.8893C81.3147 25.6433 80.659 25.5231 79.9992 25.5357V25.5357ZM79.9992 33.5545C79.3929 33.5969 78.7879 33.4559 78.2627 33.1499C77.7376 32.8439 77.3167 32.387 77.0547 31.8385C76.7927 31.2901 76.7018 30.6756 76.7937 30.0748C76.8856 29.474 77.1561 28.9147 77.5701 28.4697C77.984 28.0247 78.5223 27.7145 79.1149 27.5795C79.7075 27.4444 80.327 27.4908 80.8929 27.7125C81.4588 27.9342 81.9449 28.3211 82.288 28.8227C82.6312 29.3244 82.8154 29.9177 82.8169 30.5254C82.8358 30.9105 82.7774 31.2955 82.6452 31.6577C82.5129 32.0199 82.3095 32.3519 82.0469 32.6342C81.7843 32.9165 81.4678 33.1434 81.1161 33.3015C80.7644 33.4595 80.3847 33.5455 79.9992 33.5545ZM69.0688 25.5357C68.0824 25.5381 67.1189 25.8327 66.2999 26.3824C65.4809 26.932 64.8431 27.7121 64.4673 28.6241C64.0914 29.536 63.9943 30.5389 64.1881 31.5061C64.382 32.4732 64.8581 33.3612 65.5564 34.0578C66.2547 34.7545 67.1438 35.2285 68.1114 35.4201C69.079 35.6117 70.0816 35.5122 70.9927 35.1342C71.9038 34.7562 72.6824 34.1166 73.2301 33.2963C73.7779 32.4761 74.0702 31.5118 74.0702 30.5254C74.0798 29.8655 73.9565 29.2105 73.7077 28.5992C73.4588 27.988 73.0895 27.4331 72.6218 26.9675C72.154 26.5019 71.5974 26.1352 70.985 25.8893C70.3725 25.6433 69.7169 25.5231 69.0571 25.5357H69.0688ZM69.0688 33.5545C68.4622 33.5993 67.8562 33.4604 67.3296 33.156C66.803 32.8515 66.3803 32.3956 66.1165 31.8475C65.8526 31.2995 65.7599 30.6847 65.8504 30.0832C65.9408 29.4817 66.2103 28.9214 66.6236 28.4752C67.037 28.029 67.5751 27.7175 68.1679 27.5814C68.7607 27.4453 69.3808 27.4908 69.9474 27.7121C70.514 27.9333 71.0009 28.32 71.3446 28.8217C71.6884 29.3235 71.8731 29.9172 71.8748 30.5254C71.8937 30.9105 71.8353 31.2955 71.703 31.6577C71.5708 32.0199 71.3674 32.3519 71.1048 32.6342C70.8422 32.9165 70.5257 33.1434 70.174 33.3015C69.8223 33.4595 69.4425 33.5455 69.0571 33.5545H69.0688ZM56.0486 27.0737V29.187H61.1205C61.041 30.1824 60.6272 31.1216 59.9464 31.8521C59.439 32.369 58.829 32.7739 58.1557 33.0408C57.4823 33.3077 56.7606 33.4307 56.0368 33.4019C54.5422 33.4019 53.1088 32.8081 52.052 31.7513C50.9951 30.6944 50.4014 29.261 50.4014 27.7664C50.4014 26.2718 50.9951 24.8384 52.052 23.7816C53.1088 22.7247 54.5422 22.131 56.0368 22.131C57.4666 22.1077 58.8472 22.6523 59.876 23.6455L61.367 22.1545C60.6726 21.4512 59.844 20.8946 58.9304 20.5175C58.0169 20.1403 57.0369 19.9504 56.0486 19.959C55.0049 19.9184 53.9637 20.0889 52.9874 20.4603C52.0111 20.8317 51.1199 21.3963 50.3671 22.1204C49.6143 22.8445 49.0154 23.7131 48.6063 24.6742C48.1972 25.6353 47.9863 26.6691 47.9863 27.7136C47.9863 28.7581 48.1972 29.7919 48.6063 30.753C49.0154 31.7141 49.6143 32.5827 50.3671 33.3068C51.1199 34.0308 52.0111 34.5955 52.9874 34.9669C53.9637 35.3383 55.0049 35.5088 56.0486 35.4682C57.0535 35.5136 58.0565 35.3432 58.9901 34.9686C59.9237 34.5939 60.7662 34.0237 61.461 33.2962C62.691 31.9448 63.3477 30.1682 63.2925 28.3417C63.2963 27.8967 63.2569 27.4524 63.1751 27.015L56.0486 27.0737ZM109.245 28.7174C108.939 27.8166 108.366 27.03 107.603 26.4619C106.84 25.8937 105.922 25.5707 104.971 25.5357C104.329 25.5345 103.693 25.665 103.104 25.9191C102.514 26.1732 101.982 26.5457 101.542 27.0133C101.102 27.481 100.763 28.0339 100.545 28.638C100.327 29.2421 100.235 29.8845 100.275 30.5254C100.261 31.1816 100.379 31.834 100.622 32.4435C100.866 33.053 101.23 33.6072 101.692 34.0729C102.155 34.5387 102.706 34.9064 103.314 35.1542C103.922 35.402 104.573 35.5248 105.23 35.5151C106.051 35.5196 106.86 35.3203 107.586 34.9351C108.311 34.5499 108.929 33.9908 109.386 33.3079L107.683 32.1339C107.429 32.5575 107.069 32.9078 106.639 33.1507C106.209 33.3935 105.723 33.5205 105.23 33.5193C104.721 33.5386 104.218 33.4046 103.787 33.1345C103.356 32.8644 103.016 32.4707 102.811 32.0047L109.491 29.2457L109.245 28.7174ZM102.435 30.3846C102.411 30.0214 102.46 29.6572 102.579 29.3132C102.698 28.9692 102.884 28.6523 103.127 28.3811C103.369 28.11 103.664 27.89 103.993 27.734C104.321 27.5781 104.678 27.4893 105.042 27.4729C105.42 27.448 105.798 27.5348 106.128 27.7226C106.458 27.9105 106.725 28.1911 106.897 28.5296L102.435 30.3846ZM97.0112 35.2216H99.2066V20.546H97.0112V35.2216ZM93.4186 26.6511H93.3364C93.0055 26.2811 92.6002 25.9853 92.147 25.783C91.6937 25.5806 91.2029 25.4764 90.7065 25.477C89.4235 25.5392 88.2136 26.0927 87.3276 27.0228C86.4416 27.9528 85.9473 29.1881 85.9473 30.4726C85.9473 31.7571 86.4416 32.9924 87.3276 33.9225C88.2136 34.8525 89.4235 35.406 90.7065 35.4682C91.204 35.4766 91.6974 35.3758 92.1517 35.1729C92.6061 34.9701 93.0105 34.6701 93.3364 34.2941H93.4068V35.0103C93.4068 36.924 92.3854 37.9454 90.7418 37.9454C90.1943 37.9326 89.6631 37.7572 89.2156 37.4415C88.7682 37.1258 88.4249 36.6841 88.2293 36.1726L86.3156 36.971C86.6758 37.8472 87.2896 38.5959 88.0782 39.121C88.8669 39.646 89.7943 39.9235 90.7418 39.9178C93.3129 39.9178 95.4379 38.4033 95.4379 34.7168V25.8292H93.4186V26.6511ZM90.9061 33.5545C90.1488 33.4877 89.4439 33.1397 88.9305 32.5791C88.4171 32.0184 88.1323 31.2857 88.1323 30.5254C88.1323 29.7652 88.4171 29.0325 88.9305 28.4718C89.4439 27.9111 90.1488 27.5631 90.9061 27.4964C91.2816 27.5157 91.6494 27.6099 91.988 27.7735C92.3265 27.9371 92.6288 28.1668 92.8772 28.4491C93.1255 28.7314 93.3149 29.0605 93.4341 29.4171C93.5533 29.7737 93.5999 30.1506 93.5712 30.5254C93.6032 30.9019 93.5586 31.281 93.4399 31.6398C93.3212 31.9985 93.1311 32.3295 92.8808 32.6126C92.6306 32.8958 92.3256 33.1253 91.9841 33.2871C91.6427 33.449 91.272 33.54 90.8944 33.5545H90.9061ZM119.529 20.546H114.281V35.2216H116.477V29.6566H119.541C120.167 29.7016 120.795 29.6172 121.387 29.4086C121.978 29.2 122.521 28.8718 122.98 28.4444C123.439 28.017 123.805 27.4996 124.056 26.9244C124.306 26.3493 124.435 25.7287 124.435 25.1013C124.435 24.474 124.306 23.8534 124.056 23.2782C123.805 22.7031 123.439 22.1856 122.98 21.7582C122.521 21.3308 121.978 21.0026 121.387 20.7941C120.795 20.5855 120.167 20.5011 119.541 20.546H119.529ZM119.529 27.5903H116.465V22.5889H119.576C120.244 22.5889 120.885 22.8542 121.357 23.3265C121.829 23.7987 122.095 24.4393 122.095 25.1072C122.095 25.7751 121.829 26.4157 121.357 26.8879C120.885 27.3602 120.244 27.6255 119.576 27.6255L119.529 27.5903ZM133.066 25.477C132.267 25.4293 131.471 25.616 130.777 26.0144C130.082 26.4128 129.519 27.0054 129.157 27.7195L131.106 28.5296C131.298 28.1754 131.589 27.8848 131.943 27.693C132.297 27.5012 132.7 27.4166 133.101 27.4494C133.38 27.4169 133.663 27.4402 133.932 27.5179C134.202 27.5957 134.453 27.7263 134.672 27.9023C134.89 28.0782 135.072 28.2959 135.205 28.5427C135.339 28.7895 135.422 29.0604 135.45 29.3397V29.4923C134.744 29.1189 133.958 28.9254 133.16 28.9287C131.059 28.9287 128.934 30.1028 128.934 32.2278C128.954 32.6809 129.066 33.1253 129.261 33.5346C129.457 33.9439 129.732 34.3099 130.071 34.6109C130.411 34.9119 130.807 35.1418 131.237 35.287C131.666 35.4323 132.121 35.4899 132.573 35.4564C133.126 35.4962 133.679 35.3863 134.175 35.1384C134.671 34.8905 135.091 34.5137 135.391 34.0476H135.461V35.2216H137.575V29.5745C137.575 27.0033 135.626 25.5122 133.125 25.5122L133.066 25.477ZM132.796 33.5193C132.08 33.5193 131.082 33.1553 131.082 32.2748C131.082 31.1007 132.327 30.7133 133.43 30.7133C134.128 30.6961 134.817 30.8664 135.426 31.2064C135.353 31.842 135.052 32.4297 134.58 32.8612C134.107 33.2927 133.495 33.5389 132.855 33.5545L132.796 33.5193ZM145.276 25.8292L142.764 32.1926H142.693L140.087 25.8292H137.739L141.649 34.7285L139.418 39.6713H141.707L147.718 25.8292H145.276ZM125.541 35.2216H127.736V20.546H125.541V35.2216Z" fill="white"></path> <path d="M49.4393 16.7538H48.5705V14.4057H49.3102C49.6474 14.0483 49.9021 13.6213 50.0563 13.1547C50.2105 12.6881 50.2604 12.1934 50.2025 11.7054V8.21847H54.8987V14.394H55.6853V16.7421H54.8165V15.2628H49.4393V16.7538ZM51.0713 11.7406C51.126 12.6876 50.8927 13.6291 50.402 14.4409H53.9242V9.08726H51.0713V11.7406ZM62.7061 14.347C62.0197 15.0295 61.0911 15.4127 60.1232 15.4127C59.1552 15.4127 58.2266 15.0295 57.5403 14.347C56.8731 13.6408 56.5015 12.7062 56.5015 11.7347C56.5015 10.7633 56.8731 9.82865 57.5403 9.12248C57.8786 8.78171 58.281 8.51124 58.7243 8.32668C59.1676 8.14211 59.643 8.04709 60.1232 8.04709C60.6034 8.04709 61.0788 8.14211 61.5221 8.32668C61.9654 8.51124 62.3678 8.78171 62.7061 9.12248C63.3759 9.8273 63.7493 10.7625 63.7493 11.7347C63.7493 12.707 63.3759 13.6422 62.7061 14.347ZM58.2095 13.76C58.7178 14.2661 59.4059 14.5503 60.1232 14.5503C60.8405 14.5503 61.5286 14.2661 62.0369 13.76C62.5385 13.207 62.8163 12.4872 62.8163 11.7406C62.8163 10.994 62.5385 10.2742 62.0369 9.72125C61.5286 9.21509 60.8405 8.93091 60.1232 8.93091C59.4059 8.93091 58.7178 9.21509 58.2095 9.72125C57.7079 10.2742 57.43 10.994 57.43 11.7406C57.43 12.4872 57.7079 13.207 58.2095 13.76ZM68.3063 15.4154C67.8216 15.425 67.34 15.3365 66.8905 15.1551C66.4409 14.9736 66.0327 14.7031 65.6905 14.3598C65.3483 14.0164 65.079 13.6074 64.8991 13.1573C64.7191 12.7072 64.6321 12.2253 64.6433 11.7406C64.6321 11.256 64.7191 10.7741 64.8991 10.3239C65.079 9.87382 65.3483 9.46478 65.6905 9.12144C66.0327 8.77811 66.4409 8.50759 66.8905 8.32617C67.34 8.14476 67.8216 8.05621 68.3063 8.06584C68.7976 8.05368 69.2852 8.153 69.7325 8.35634C70.1799 8.55969 70.5753 8.86177 70.8892 9.23989L70.2552 9.85039C70.0233 9.556 69.7243 9.32138 69.3832 9.16615C69.0422 9.01092 68.6689 8.93959 68.2946 8.95812C67.9342 8.94875 67.5757 9.01259 67.2407 9.14578C66.9057 9.27897 66.6012 9.47874 66.3456 9.73299C65.8366 10.2893 65.5543 11.0159 65.5543 11.77C65.5543 12.524 65.8366 13.2507 66.3456 13.8069C66.6012 14.0612 66.9057 14.261 67.2407 14.3941C67.5757 14.5273 67.9342 14.5912 68.2946 14.5818C68.7078 14.5781 69.115 14.4824 69.4867 14.3017C69.8583 14.1209 70.185 13.8597 70.4431 13.5369L71.0771 14.1709C70.7575 14.5585 70.3567 14.8711 69.903 15.0867C69.4018 15.3136 68.8564 15.4259 68.3063 15.4154ZM74.7636 15.2628H73.8596V9.08726H71.8872V8.21847H76.7242V9.08726H74.7636V15.2628ZM82.9467 8.21847L80.2816 14.1592C80.1749 14.5106 79.9617 14.8202 79.6715 15.0452C79.3813 15.2703 79.0283 15.3996 78.6614 15.4154C78.4187 15.4123 78.1792 15.3604 77.957 15.2628L78.1918 14.4292C78.3345 14.5123 78.4963 14.5568 78.6614 14.5583C78.834 14.5713 79.0063 14.5303 79.1545 14.4409C79.296 14.3212 79.405 14.1678 79.4715 13.9948L79.7298 13.4312L77.3817 8.23021H78.4501L80.1877 12.2689L81.8783 8.21847H82.9467ZM83.9681 15.2628V8.21847H89.0635V15.2628H88.1595V9.08726H84.8721V15.2628H83.9681ZM90.6719 15.2628V8.21847H91.5759V11.2358H95.0981V8.21847H96.0021V15.2628H95.0981V12.0811H91.5759V15.2628H90.6719ZM103.387 14.347C102.701 15.0295 101.772 15.4127 100.804 15.4127C99.836 15.4127 98.9074 15.0295 98.2211 14.347C97.5539 13.6408 97.1823 12.7062 97.1823 11.7347C97.1823 10.7633 97.5539 9.82865 98.2211 9.12248C98.5594 8.78171 98.9618 8.51124 99.4051 8.32668C99.8484 8.14211 100.324 8.04709 100.804 8.04709C101.284 8.04709 101.76 8.14211 102.203 8.32668C102.646 8.51124 103.049 8.78171 103.387 9.12248C104.057 9.8273 104.43 10.7625 104.43 11.7347C104.43 12.707 104.057 13.6422 103.387 14.347ZM98.8903 13.76C99.3986 14.2661 100.087 14.5503 100.804 14.5503C101.521 14.5503 102.209 14.2661 102.718 13.76C103.219 13.207 103.497 12.4872 103.497 11.7406C103.497 10.994 103.219 10.2742 102.718 9.72125C102.209 9.21509 101.521 8.93091 100.804 8.93091C100.087 8.93091 99.3986 9.21509 98.8903 9.72125C98.3887 10.2742 98.1108 10.994 98.1108 11.7406C98.1108 12.4872 98.3887 13.207 98.8903 13.76ZM108.118 15.2628V8.21847H110.666C111.195 8.20848 111.708 8.40177 112.098 8.75853C112.295 8.92878 112.451 9.14007 112.556 9.37744C112.662 9.61481 112.714 9.87246 112.709 10.1322C112.714 10.4451 112.624 10.7523 112.451 11.0127C112.278 11.2656 112.038 11.465 111.758 11.588C112.098 11.7007 112.397 11.9135 112.615 12.1985C112.841 12.4861 112.961 12.8426 112.955 13.2082C112.961 13.4788 112.908 13.7475 112.798 13.995C112.689 14.2426 112.526 14.463 112.321 14.6405C111.913 15.0176 111.375 15.2235 110.819 15.2158L108.118 15.2628ZM109.022 11.2358H110.666C110.819 11.2422 110.973 11.215 111.114 11.1562C111.256 11.0974 111.384 11.0084 111.488 10.8953C111.592 10.801 111.676 10.6868 111.735 10.5594C111.793 10.4321 111.826 10.2941 111.83 10.1539C111.835 10.0136 111.811 9.87393 111.76 9.74313C111.709 9.61232 111.633 9.49308 111.535 9.39251C111.437 9.28154 111.315 9.1935 111.179 9.13466C111.043 9.07582 110.896 9.04761 110.748 9.05204H109.069L109.022 11.2358ZM109.022 14.394H110.842C111.001 14.3993 111.159 14.3694 111.305 14.3065C111.452 14.2436 111.582 14.1492 111.687 14.03C111.894 13.8153 112.012 13.5299 112.016 13.2317C112.016 12.9203 111.892 12.6217 111.672 12.4015C111.452 12.1813 111.153 12.0576 110.842 12.0576H109.058L109.022 14.394Z" fill="white"></path> <path fill-rule="evenodd" clip-rule="evenodd" d="M60.1232 8.1645C59.6585 8.1645 59.1984 8.25645 58.7694 8.43506C58.3408 8.61349 57.9518 8.87487 57.6246 9.20417C56.9787 9.88841 56.6189 10.7938 56.6189 11.7347C56.6189 12.6756 56.9786 13.5808 57.6243 14.265C58.2886 14.9249 59.1869 15.2952 60.1232 15.2952C61.0595 15.2952 61.9579 14.9248 62.6221 14.2649C63.2704 13.5821 63.6319 12.6764 63.6319 11.7347C63.6319 10.793 63.2703 9.88717 62.6219 9.20429C62.2947 8.87493 61.9056 8.61351 61.477 8.43506C61.048 8.25645 60.5879 8.1645 60.1232 8.1645ZM58.6791 8.21829C59.1367 8.02777 59.6275 7.92969 60.1232 7.92969C60.6188 7.92969 61.1096 8.02777 61.5672 8.21829C62.0248 8.40881 62.4402 8.688 62.7894 9.03977L62.7912 9.04159C63.4817 9.76823 63.8667 10.7323 63.8667 11.7347C63.8667 12.7371 63.4817 13.7012 62.7912 14.4279L62.7889 14.4303C62.0805 15.1347 61.1221 15.5301 60.1232 15.5301C59.1242 15.5301 58.1658 15.1347 57.4575 14.4303L57.4549 14.4277C56.7672 13.6997 56.3841 12.7362 56.3841 11.7347C56.3841 10.7333 56.7672 9.76982 57.4549 9.04186L57.4569 9.03974C57.8061 8.68798 58.2215 8.40881 58.6791 8.21829ZM100.804 8.1645C100.339 8.1645 99.8792 8.25645 99.4502 8.43506C99.0217 8.61348 98.6326 8.87484 98.3055 9.20411C97.6595 9.88836 97.2997 10.7937 97.2997 11.7347C97.2997 12.6756 97.6594 13.5808 98.3052 14.2651C98.9694 14.9249 99.8677 15.2952 100.804 15.2952C101.74 15.2952 102.639 14.9248 103.303 14.2649C103.951 13.582 104.313 12.6764 104.313 11.7347C104.313 10.793 103.951 9.8872 103.303 9.20432C102.975 8.87495 102.586 8.61352 102.158 8.43506C101.729 8.25645 101.269 8.1645 100.804 8.1645ZM99.3599 8.21829C99.8175 8.02777 100.308 7.92969 100.804 7.92969C101.3 7.92969 101.79 8.02777 102.248 8.21829C102.706 8.40881 103.121 8.688 103.47 9.03977L103.472 9.04159C104.162 9.76825 104.548 10.7323 104.548 11.7347C104.548 12.7371 104.162 13.7012 103.472 14.4279L103.47 14.4303C102.761 15.1347 101.803 15.5301 100.804 15.5301C99.805 15.5301 98.8466 15.1347 98.1383 14.4303L98.1357 14.4277C97.448 13.6997 97.0649 12.7362 97.0649 11.7347C97.0649 10.7333 97.448 9.76982 98.1357 9.04186L98.1377 9.03974C98.4869 8.68798 98.9023 8.40881 99.3599 8.21829ZM69.6839 8.46322C69.2527 8.26722 68.7827 8.17148 68.3092 8.18321L68.304 8.18334C67.8351 8.17402 67.3692 8.25956 66.9344 8.43505C66.4995 8.61053 66.1047 8.87221 65.7736 9.20433C65.4426 9.53644 65.1822 9.93212 65.0081 10.3675C64.834 10.803 64.7498 11.2691 64.7606 11.7379L64.7608 11.7433C64.7499 12.2121 64.834 12.6783 65.0081 13.1137C65.1822 13.5491 65.4426 13.9448 65.7736 14.2769C66.1047 14.609 66.4995 14.8707 66.9344 15.0462C67.3692 15.2217 67.8351 15.3073 68.304 15.298L68.3063 15.4154L68.3085 15.298C68.8408 15.3082 69.3686 15.1996 69.8536 14.9802C70.2593 14.7873 70.6211 14.514 70.9174 14.1773L70.4507 13.7106C70.1963 14.001 69.886 14.238 69.538 14.4073C69.151 14.5955 68.7269 14.6952 68.2966 14.6992C67.9207 14.7088 67.5467 14.6422 67.1973 14.5032C66.8475 14.3642 66.5296 14.1556 66.2628 13.8902L66.2589 13.8863C65.7301 13.3084 65.4369 12.5533 65.4369 11.77C65.4369 10.9866 65.7302 10.2316 66.259 9.65373L66.2627 9.64967C66.5296 9.38421 66.8475 9.17574 67.1973 9.03668C67.5457 8.89817 67.9184 8.83149 68.2932 8.84064C68.6847 8.82197 69.0751 8.89692 69.4319 9.05929C69.7507 9.20439 70.0345 9.41554 70.2647 9.67823L70.7278 9.23228C70.4375 8.90628 70.0821 8.64419 69.6839 8.46322ZM68.3063 15.5328C67.8066 15.5424 67.3101 15.451 66.8465 15.2639C66.3823 15.0766 65.9608 14.7972 65.6073 14.4427C65.2539 14.0881 64.9759 13.6657 64.7901 13.2009C64.6045 12.7369 64.5147 12.2402 64.5258 11.7406C64.5147 11.241 64.6045 10.7444 64.7901 10.2804C64.9759 9.81553 65.2539 9.39311 65.6073 9.03856C65.9608 8.684 66.3823 8.40464 66.8465 8.2173C67.3099 8.03028 67.8064 7.93883 68.306 7.94841C68.8141 7.93622 69.3184 8.03913 69.7811 8.24946C70.2446 8.46014 70.6544 8.77313 70.9795 9.1649L71.0492 9.24882L70.2432 10.0249L70.163 9.92304C69.9427 9.64336 69.6587 9.42048 69.3346 9.27301C69.0106 9.12554 68.6559 9.05778 68.3004 9.07538L68.2915 9.07582C67.947 9.06686 67.6043 9.12756 67.284 9.25488C66.9647 9.38186 66.6743 9.57215 66.4304 9.81428C65.9423 10.3486 65.6717 11.0462 65.6717 11.77C65.6717 12.4937 65.9423 13.1913 66.4304 13.7257C66.6743 13.9678 66.9647 14.1581 67.284 14.2851C67.6043 14.4124 67.947 14.4734 68.2915 14.4644L68.2935 14.4644C68.6893 14.4609 69.0794 14.3692 69.4353 14.1961C69.7913 14.023 70.1042 13.7728 70.3514 13.4636L70.4333 13.3611L71.2355 14.1633L71.1676 14.2456C70.8372 14.6464 70.4226 14.9698 69.9534 15.1927L69.9515 15.1936C69.4351 15.4275 68.8731 15.5433 68.3063 15.5328ZM112.019 8.84523C111.651 8.50874 111.167 8.32643 110.668 8.33585L110.666 8.33587H108.236V15.1433L110.817 15.0984L110.82 15.0984C111.346 15.1057 111.855 14.9109 112.242 14.5542L112.244 14.5518C112.436 14.3856 112.588 14.1793 112.691 13.9475C112.793 13.7157 112.844 13.4642 112.838 13.2108L112.838 13.2064C112.843 12.8677 112.732 12.5375 112.523 12.271L112.522 12.2698C112.318 12.0035 112.039 11.8048 111.721 11.6994L111.431 11.6034L111.711 11.4805C111.971 11.3664 112.193 11.1816 112.353 10.9471C112.513 10.7067 112.597 10.4231 112.591 10.1342V10.1299C112.596 9.88736 112.548 9.64677 112.449 9.42512C112.351 9.20347 112.205 9.00618 112.021 8.8472L112.019 8.84523ZM112.176 8.67088C111.764 8.29471 111.223 8.09081 110.665 8.10106H108.001V15.3822L110.817 15.3332L110.819 15.3332C111.404 15.3409 111.969 15.1243 112.4 14.728C112.616 14.5393 112.789 14.3053 112.905 14.0426C113.022 13.7799 113.079 13.4949 113.073 13.2078L113.073 13.2099L112.955 13.2082L113.073 13.2056L113.073 13.2078C113.078 12.8163 112.949 12.4347 112.708 12.1266C112.528 11.8918 112.297 11.7031 112.034 11.5741C112.237 11.4466 112.412 11.2782 112.548 11.0788L112.548 11.0779C112.735 10.7982 112.832 10.4684 112.826 10.1323L112.826 10.1345L112.709 10.1322L112.826 10.1301L112.826 10.1323C112.831 9.85609 112.776 9.58217 112.664 9.32975C112.551 9.07714 112.385 8.85223 112.176 8.67088ZM50.0851 8.10106H55.0161V14.2766H55.8027V16.8595H54.6991V15.3802H49.5567V16.8712H48.4531V14.2883H49.259C49.5675 13.951 49.8013 13.5522 49.9448 13.1178C50.0936 12.6676 50.1418 12.1901 50.0859 11.7192L50.0851 11.7123V8.10106ZM50.3199 8.33587V11.6985C50.3785 12.2013 50.3266 12.7108 50.1678 13.1915C50.0082 13.6744 49.7446 14.1164 49.3956 14.4863L49.3608 14.5231H48.6879V16.6364H49.3219V15.1454H54.9339V16.6247H55.5679V14.5114H54.7812V8.33587H50.3199ZM71.7697 8.10106H76.8416V9.20467H74.881V15.3802H73.7421V9.20467H71.7697V8.10106ZM72.0046 8.33587V8.96986H73.977V15.1454H74.6462V8.96986H76.6068V8.33587H72.0046ZM81.8001 8.10106H83.128L80.3917 14.2005C80.2773 14.5722 80.0509 14.8996 79.7435 15.138C79.434 15.3779 79.0577 15.5159 78.6665 15.5327L78.6599 15.533C78.4015 15.5297 78.1464 15.4742 77.9097 15.3702L77.8163 15.3292L78.1199 14.2515L78.2509 14.3277C78.3759 14.4006 78.5178 14.4396 78.6625 14.4409L78.6702 14.441C78.8154 14.4519 78.9604 14.4186 79.0859 14.3451C79.2088 14.2391 79.3036 14.1043 79.3619 13.9526L79.3646 13.9458L79.6008 13.4309L77.1999 8.1128H78.5274L80.186 11.9681L81.8001 8.10106ZM81.9565 8.33587L80.1893 12.5698L78.3728 8.34761H77.5635L79.8588 13.4316L79.5797 14.0405C79.506 14.2304 79.3859 14.3989 79.2304 14.5305L79.2232 14.5366L79.2151 14.5415C79.0472 14.6428 78.852 14.6896 78.6565 14.6757C78.5223 14.6739 78.3901 14.6469 78.2666 14.5966L78.0985 15.1934C78.278 15.2597 78.4678 15.2951 78.6596 15.2979C79.0011 15.2826 79.3294 15.1619 79.5996 14.9524C79.8706 14.7423 80.0696 14.4532 80.1693 14.1251L80.1714 14.1179L82.7653 8.33587H81.9565ZM83.8507 8.10106H89.1809V15.3802H88.0421V9.20467H84.9895V15.3802H83.8507V8.10106ZM84.0855 8.33587V15.1454H84.7547V8.96986H88.2769V15.1454H88.9461V8.33587H84.0855ZM90.5545 8.10106H91.6934V11.1184H94.9807V8.10106H96.1195V15.3802H94.9807V12.1985H91.6934V15.3802H90.5545V8.10106ZM90.7893 8.33587V15.1454H91.4585V11.9637H95.2155V15.1454H95.8847V8.33587H95.2155V11.3532H91.4585V8.33587H90.7893ZM58.1266 9.63806C58.6569 9.10999 59.3748 8.81351 60.1232 8.81351C60.8715 8.81351 61.5894 9.10999 62.1197 9.63806L62.1239 9.64227C62.6451 10.2168 62.9337 10.9649 62.9337 11.7406C62.9337 12.5163 62.645 13.2643 62.1238 13.8389L62.1198 13.8433C61.5895 14.3713 60.8715 14.6677 60.1232 14.6677C59.3748 14.6677 58.6569 14.3712 58.1266 13.8432L58.2095 13.76L58.1225 13.8389C57.6013 13.2643 57.3126 12.5163 57.3126 11.7406C57.3126 10.9649 57.6013 10.2169 58.1225 9.64237L58.1266 9.63806ZM58.2944 13.6789C58.7805 14.1618 59.4379 14.4329 60.1232 14.4329C60.8084 14.4329 61.4659 14.1618 61.9519 13.6789C62.4327 13.1478 62.6989 12.457 62.6989 11.7406C62.6989 11.0242 62.4327 10.3334 61.9519 9.80234C61.4659 9.31941 60.8084 9.04831 60.1232 9.04831C59.4379 9.04831 58.7805 9.31941 58.2944 9.80234C57.8137 10.3334 57.5474 11.0242 57.5474 11.7406C57.5474 12.457 57.8137 13.1478 58.2944 13.6789ZM98.8074 9.63806C99.3377 9.10999 100.056 8.81351 100.804 8.81351C101.552 8.81351 102.27 9.10999 102.801 9.63806L102.805 9.64227C103.326 10.2168 103.615 10.9649 103.615 11.7406C103.615 12.5163 103.326 13.2643 102.805 13.8389L102.801 13.8433C102.27 14.3713 101.552 14.6677 100.804 14.6677C100.056 14.6677 99.3377 14.3712 98.8074 13.8432L98.8903 13.76L98.8033 13.8389C98.2821 13.2643 97.9934 12.5163 97.9934 11.7406C97.9934 10.9649 98.2821 10.2169 98.8033 9.64237L98.8074 9.63806ZM98.9752 13.6789C99.4613 14.1618 100.119 14.4329 100.804 14.4329C101.489 14.4329 102.147 14.1618 102.633 13.6789C103.113 13.1478 103.38 12.457 103.38 11.7406C103.38 11.0242 103.113 10.3334 102.633 9.80233C102.147 9.3194 101.489 9.04831 100.804 9.04831C100.119 9.04831 99.4613 9.3194 98.9752 9.80233C98.4945 10.3334 98.2282 11.0242 98.2282 11.7406C98.2282 12.457 98.4945 13.1478 98.9752 13.6789ZM110.746 8.93463C110.911 8.92998 111.075 8.96147 111.226 9.02692C111.377 9.09224 111.512 9.18979 111.621 9.31271C111.729 9.42414 111.813 9.55604 111.869 9.70064C111.926 9.84614 111.953 10.0015 111.948 10.1575C111.943 10.3135 111.907 10.467 111.841 10.6087C111.776 10.7488 111.684 10.8745 111.571 10.9787C111.456 11.1025 111.315 11.2 111.159 11.2647C111.002 11.3297 110.833 11.3599 110.664 11.3532H108.902L108.954 8.93463H110.746ZM111.133 9.24241C111.013 9.19041 110.883 9.16548 110.752 9.16939L110.748 9.16944H109.184L109.142 11.1184H110.671C110.807 11.1241 110.943 11.1 111.07 11.0478C111.196 10.9955 111.309 10.9163 111.401 10.8158L111.405 10.8119L111.409 10.8083C111.501 10.7247 111.576 10.6233 111.628 10.5102C111.68 10.3971 111.709 10.2747 111.713 10.1502C111.717 10.0257 111.696 9.90172 111.651 9.78561C111.606 9.6695 111.538 9.56365 111.451 9.47439L111.447 9.47037C111.36 9.37229 111.253 9.29441 111.133 9.24241ZM50.9539 8.96986H54.0416V14.5583H50.1939L50.3016 14.3802C50.78 13.5886 51.0075 12.6708 50.954 11.7474L50.9537 11.7406L50.9539 8.96986ZM51.1887 9.20467V11.7372C51.2401 12.6383 51.0372 13.5343 50.6051 14.3235H53.8068V9.20467H51.1887ZM108.942 11.9402H110.842C111.185 11.9402 111.513 12.0763 111.755 12.3185C111.997 12.5607 112.134 12.8891 112.134 13.2317L112.134 13.2333C112.129 13.5605 112 13.8738 111.774 14.1098C111.657 14.241 111.513 14.3449 111.352 14.4144C111.19 14.4838 111.016 14.517 110.84 14.5114H108.903L108.942 11.9402ZM109.173 12.175L109.142 14.2766H110.846C110.988 14.2813 111.129 14.2548 111.259 14.1987C111.389 14.1426 111.506 14.0585 111.599 13.9522L111.603 13.9484C111.789 13.7554 111.895 13.4989 111.899 13.2308C111.899 12.9509 111.787 12.6825 111.589 12.4845C111.391 12.2863 111.122 12.175 110.842 12.175H109.173Z" fill="white"></path> <path d="M12.2562 8.8522C11.8735 9.31139 11.6804 9.89922 11.7161 10.4959V36.4658C11.6804 37.0625 11.8735 37.6503 12.2562 38.1095L12.3384 38.1917L26.8848 23.657V23.3165L12.3384 8.77002L12.2562 8.8522Z" fill="url(#paint0_linear_3283_35341)"></path> <path d="M31.6993 28.5064L26.8857 23.6576V23.3171L31.6993 18.4565L31.805 18.5152L37.5696 21.7908C39.2133 22.7183 39.2133 24.2446 37.5696 25.1838L31.8285 28.4477L31.6993 28.5064Z" fill="url(#paint1_linear_3283_35341)"></path> <path d="M31.84 28.4354L26.8855 23.481L12.2568 38.1096C12.5919 38.4041 13.0193 38.5723 13.4651 38.5852C13.911 38.5981 14.3474 38.4548 14.6989 38.1801L31.8517 28.4354" fill="url(#paint2_linear_3283_35341)"></path> <path d="M31.84 18.5265L14.6871 8.78193C14.3357 8.50722 13.8993 8.36391 13.4534 8.37677C13.0075 8.38964 12.5801 8.55786 12.2451 8.85237L26.8855 23.481L31.84 18.5265Z" fill="url(#paint3_linear_3283_35341)"></path> <path opacity="0.2" d="M31.6991 28.3301L14.6871 38.016C14.3482 38.2694 13.9363 38.4064 13.5131 38.4064C13.0898 38.4064 12.678 38.2694 12.339 38.016L12.2568 38.0982L12.339 38.1803C12.6772 38.4356 13.0894 38.5737 13.5131 38.5737C13.9368 38.5737 14.3489 38.4356 14.6871 38.1803L31.84 28.4357L31.6991 28.3301Z" fill="black"></path> <path opacity="0.12" d="M12.2562 37.9452C11.8735 37.4861 11.6804 36.8982 11.7161 36.3016V36.4777C11.6804 37.0743 11.8735 37.6622 12.2562 38.1214L12.3384 38.0392L12.2562 37.9452ZM37.5687 25.0072L31.6984 28.3298L31.8041 28.4354L37.5687 25.1716C37.8958 25.0179 38.1766 24.7807 38.3827 24.4839C38.5888 24.1871 38.713 23.8411 38.7427 23.481C38.6767 23.8082 38.5366 24.1159 38.333 24.3805C38.1295 24.6451 37.868 24.8595 37.5687 25.0072Z" fill="black"></path> <path opacity="0.25" d="M14.6872 8.94657L37.5694 21.955C37.8687 22.1028 38.1302 22.3172 38.3337 22.5818C38.5372 22.8464 38.6774 23.1541 38.7434 23.4813C38.7137 23.1211 38.5895 22.7752 38.3834 22.4784C38.1772 22.1815 37.8965 21.9443 37.5694 21.7907L14.6872 8.7822C13.0435 7.8547 11.7051 8.62957 11.7051 10.5081V10.6842C11.7403 8.79394 13.0552 8.01907 14.6872 8.94657V8.94657Z" fill="white"></path> <defs> <linearGradient id="paint0_linear_3283_35341" x1="25.5934" y1="10.2258" x2="5.89283" y2="29.9264" gradientUnits="userSpaceOnUse"> <stop stop-color="#00A0FF"></stop> <stop offset="0.01" stop-color="#00A1FF"></stop> <stop offset="0.26" stop-color="#00BEFF"></stop> <stop offset="0.51" stop-color="#00D2FF"></stop> <stop offset="0.76" stop-color="#00DFFF"></stop> <stop offset="1" stop-color="#00E3FF"></stop> </linearGradient> <linearGradient id="paint1_linear_3283_35341" x1="39.7181" y1="23.4815" x2="11.3179" y2="23.4815" gradientUnits="userSpaceOnUse"> <stop stop-color="#FFE000"></stop> <stop offset="0.41" stop-color="#FFBD00"></stop> <stop offset="0.78" stop-color="#FFA500"></stop> <stop offset="1" stop-color="#FF9C00"></stop> </linearGradient> <linearGradient id="paint2_linear_3283_35341" x1="29.1514" y1="26.1813" x2="2.43004" y2="52.8909" gradientUnits="userSpaceOnUse"> <stop stop-color="#FF3A44"></stop> <stop offset="1" stop-color="#C31162"></stop> </linearGradient> <linearGradient id="paint3_linear_3283_35341" x1="8.57034" y1="0.21137" x2="20.4987" y2="12.1397" gradientUnits="userSpaceOnUse"> <stop stop-color="#32A071"></stop> <stop offset="0.07" stop-color="#2DA771"></stop> <stop offset="0.48" stop-color="#15CF74"></stop> <stop offset="0.8" stop-color="#06E775"></stop> <stop offset="1" stop-color="#00F076"></stop> </linearGradient> </defs> </svg> 