<?xml version="1.0" encoding="UTF-8"?> <svg xmlns="http://www.w3.org/2000/svg" width="32" height="33" viewBox="0 0 32 33" fill="none"> <path d="M0 16.8096C0 7.97301 7.16344 0.80957 16 0.80957V0.80957C24.8366 0.80957 32 7.97301 32 16.8096V16.8096C32 25.6461 24.8366 32.8096 16 32.8096V32.8096C7.16344 32.8096 0 25.6461 0 16.8096V16.8096Z" fill="url(#paint0_linear_3283_38308)"></path> <path d="M5.95875 17.5921C7.82914 16.5619 9.91701 15.702 11.8678 14.8378C15.2239 13.4222 18.5934 12.0311 21.9969 10.736C22.6591 10.5154 23.8489 10.2996 23.9655 11.2809C23.9017 12.67 23.6389 14.0509 23.4586 15.4318C23.0011 18.4686 22.4723 21.495 21.9566 24.5218C21.7789 25.53 20.5159 26.0519 19.7078 25.4067C17.7657 24.0949 15.8086 22.7958 13.8913 21.4535C13.2632 20.8153 13.8456 19.8989 14.4065 19.4431C16.0061 17.8667 17.7025 16.5274 19.2185 14.8696C19.6275 13.882 18.4192 14.7143 18.0207 14.9693C15.8308 16.4784 13.6945 18.0795 11.3857 19.4058C10.2064 20.055 8.83187 19.5002 7.65307 19.1379C6.59613 18.7003 5.04731 18.2595 5.95865 17.5922L5.95875 17.5921Z" fill="white"></path> <defs> <linearGradient id="paint0_linear_3283_38308" x1="12.0019" y1="2.14397" x2="4.00187" y2="20.8096" gradientUnits="userSpaceOnUse"> <stop stop-color="#37AEE2"></stop> <stop offset="1" stop-color="#1E96C8"></stop> </linearGradient> </defs> </svg> 