<?xml version="1.0" encoding="UTF-8"?> <svg xmlns="http://www.w3.org/2000/svg" width="32" height="33" viewBox="0 0 32 33" fill="none"> <path d="M0 16.1096C0 9.73502 0 6.54775 1.62336 4.3134C2.14763 3.59179 2.78222 2.9572 3.50383 2.43293C5.73818 0.80957 8.92545 0.80957 15.3 0.80957H16.7C23.0745 0.80957 26.2618 0.80957 28.4962 2.43293C29.2178 2.9572 29.8524 3.59179 30.3766 4.3134C32 6.54775 32 9.73503 32 16.1096V17.5096C32 23.8841 32 27.0714 30.3766 29.3057C29.8524 30.0273 29.2178 30.6619 28.4962 31.1862C26.2618 32.8096 23.0745 32.8096 16.7 32.8096H15.3C8.92545 32.8096 5.73818 32.8096 3.50383 31.1862C2.78222 30.6619 2.14763 30.0273 1.62336 29.3057C0 27.0714 0 23.8841 0 17.5096V16.1096Z" fill="#0077FF"></path> <path d="M17.027 23.8649C9.73366 23.8649 5.57372 18.8649 5.40039 10.5449H9.05372C9.17372 16.6516 11.867 19.2383 14.0003 19.7716V10.5449H17.4405V15.8116C19.5471 15.5849 21.7602 13.1849 22.5069 10.5449H25.9469C25.3736 13.7983 22.9736 16.1983 21.2669 17.1849C22.9736 17.9849 25.7071 20.0783 26.7471 23.8649H22.9603C22.1469 21.3316 20.1205 19.3716 17.4405 19.1049V23.8649H17.027Z" fill="white"></path> </svg> 