<?xml version="1.0" encoding="UTF-8"?> <svg xmlns="http://www.w3.org/2000/svg" width="32" height="33" viewBox="0 0 32 33" fill="none"> <rect y="0.80957" width="32" height="32" rx="16" fill="#FF0000"></rect> <path d="M24.1768 12.8588C23.9805 12.1048 23.4022 11.5111 22.6679 11.3096C21.3371 10.9434 16.0001 10.9434 16.0001 10.9434C16.0001 10.9434 10.6632 10.9434 9.3323 11.3096C8.59795 11.5111 8.01962 12.1048 7.82335 12.8588C7.4668 14.2254 7.4668 17.0767 7.4668 17.0767C7.4668 17.0767 7.4668 19.9279 7.82335 21.2945C8.01962 22.0486 8.59795 22.6423 9.3323 22.8439C10.6632 23.21 16.0001 23.21 16.0001 23.21C16.0001 23.21 21.3371 23.21 22.6679 22.8439C23.4022 22.6423 23.9805 22.0486 24.1768 21.2945C24.5335 19.9279 24.5335 17.0767 24.5335 17.0767C24.5335 17.0767 24.5335 14.2254 24.1768 12.8588" fill="white"></path> <path d="M14.4004 20.0091V14.6758L18.6671 17.3426L14.4004 20.0091Z" fill="#FF0000"></path> </svg> 